<svg xmlns="http://www.w3.org/2000/svg" viewBox="0 0 640 900" role="img" aria-labelledby="title desc">
  <title id="title">新版實用視聽華語 5 第三版封面</title>
  <desc id="desc">A stylized cover image for Practical Audio-Visual Chinese 3rd Edition Vol. 5.</desc>
  <rect width="640" height="900" fill="#f8f5f7"/>
  <rect x="0" y="650" width="640" height="250" fill="#4a210c"/>
  <rect x="376" y="202" width="160" height="160" transform="rotate(45 456 282)" fill="#9a1f58"/>
  <rect x="440" y="332" width="152" height="152" transform="rotate(45 516 408)" fill="#284fa8"/>
  <rect x="480" y="462" width="138" height="138" transform="rotate(45 549 531)" fill="#2aa1c8"/>
  <rect x="380" y="462" width="138" height="138" transform="rotate(45 449 531)" fill="#f1e7e9"/>
  <rect x="310" y="320" width="138" height="138" transform="rotate(45 379 389)" fill="#d3a5bb"/>
  <text x="52" y="112" font-family="Arial, 'Microsoft JhengHei', sans-serif" font-size="54" font-weight="700" fill="#171214">實用</text>
  <rect x="156" y="38" width="86" height="84" fill="#b3286a"/>
  <text x="168" y="92" font-family="Arial, 'Microsoft JhengHei', sans-serif" font-size="34" font-weight="700" fill="#fff">新版</text>
  <text x="52" y="208" font-family="Arial, 'Microsoft JhengHei', sans-serif" font-size="70" font-weight="900" fill="#171214">視聽華語</text>
  <rect x="490" y="124" width="118" height="88" fill="#9a1f58"/>
  <text x="510" y="190" font-family="Arial, sans-serif" font-size="76" font-weight="900" fill="#fff">5</text>
  <text x="54" y="278" font-family="Arial, sans-serif" font-size="34" fill="#777">PRACTICAL</text>
  <text x="54" y="318" font-family="Arial, sans-serif" font-size="34" fill="#777">AUDIO-VISUAL</text>
  <text x="54" y="376" font-family="Arial, sans-serif" font-size="52" font-weight="700" fill="#555">CHINESE</text>
  <text x="56" y="420" font-family="Arial, sans-serif" font-size="30" fill="#777">3RD EDITION</text>
  <ellipse cx="205" cy="668" rx="108" ry="34" fill="#d99670"/>
  <ellipse cx="210" cy="598" rx="126" ry="72" fill="#9f4228"/>
  <ellipse cx="210" cy="560" rx="74" ry="28" fill="#b95a3b"/>
  <rect x="94" y="594" width="238" height="92" rx="45" fill="#9f4228"/>
  <circle cx="210" cy="525" r="18" fill="#7b2c18"/>
  <path d="M326 598 C394 586 416 624 344 646" fill="none" stroke="#8a351f" stroke-width="24" stroke-linecap="round"/>
  <path d="M94 614 C48 592 38 650 92 650" fill="none" stroke="#8a351f" stroke-width="24" stroke-linecap="round"/>
  <ellipse cx="74" cy="700" rx="64" ry="26" fill="#b86b4d"/>
  <text x="458" y="820" font-family="Arial, 'Microsoft JhengHei', sans-serif" font-size="24" font-weight="700" fill="#1c1719">正中書局</text>
</svg>
